<svg width="66" height="63" viewBox="0 0 66 63" fill="none" xmlns="http://www.w3.org/2000/svg">
    <g clip-path="url(#clip0_1_528)">
        <path
            d="M2.60156 54.3886L8.81679 40.9833C8.81679 40.9833 8.96881 40.5603 8.97729 40.5942C10.1286 45.219 15.3389 50.8211 15.3389 50.8211C15.3389 50.8211 11.5891 59.3017 2.60156 54.3886Z"
            fill="white" />
        <path d="M35.107 23.2783H30.793V27.5924H35.107V23.2783Z" fill="white" />
        <path d="M38.8639 16.4033H35.1074V20.1598H38.8639V16.4033Z" fill="white" />
        <path d="M44.7 13.6318H41.165V17.1668H44.7V13.6318Z" fill="white" />
        <path d="M36.947 10.4565H34.2988V13.2428H36.947V10.4565Z" fill="white" />
        <path d="M46.653 9.40771H44.0049V12.1939H46.653V9.40771Z" fill="white" />
        <path d="M42.5603 7.10107H41.165V8.56898H42.5603V7.10107Z" fill="white" />
        <path
            d="M50.0865 23.2888C46.3116 23.4503 44.7559 25.7696 43.8551 27.4048C41.7993 31.1369 36.4255 42.7434 36.4255 42.7434C36.4255 42.7434 31.4517 30.378 28.9491 26.7394C26.2118 22.7592 23.7831 23.4501 21.3813 23.4739C18.5331 23.502 15.977 25.687 14.9153 27.2249C13.3279 29.5246 10.0303 37.6042 10.0303 37.6042C10.6547 43.5302 16.4857 49.249 16.4857 49.249L21.9855 35.3137L24.8016 41.605L29.1157 51.3114C31.5722 55.8914 37.4049 55.8702 39.9195 55.0784C43.1551 54.0599 44.6463 49.6487 44.6463 49.6487C44.6463 49.6487 55.3593 26.3262 55.7188 24.6485C55.7188 24.6485 53.5524 23.1402 50.0867 23.2886L50.0865 23.2888ZM26.5487 37.5013H24.5886V35.6512H26.5487V37.5013ZM27.611 32.0264H23.7165V28.1318H27.611V32.0264ZM30.7931 35.7711H28.1268V33.2546H30.7931V35.7711Z"
            fill="white" />
        <path
            d="M35.6222 2.66846C20.0599 2.66846 7.44434 15.2842 7.44434 30.8463C7.44434 34.0609 7.97852 37.3868 8.96998 40.2647C9.17348 39.3758 10.0301 37.6042 10.0301 37.6042C10.0301 37.6042 9.1541 33.9257 9.1541 30.8463C9.1541 16.2285 21.0043 4.37822 35.6222 4.37822C50.2401 4.37822 62.0903 16.2285 62.0903 30.8463C62.0903 45.4642 50.2401 57.3147 35.6222 57.3147C27.929 57.3147 21.3215 54.4897 16.4855 49.2492C16.5249 49.2918 15.5827 50.5877 15.5534 50.6153C20.6785 55.9291 27.6566 59.0244 35.6222 59.0244C51.1845 59.0244 63.8001 46.4086 63.8001 30.8465C63.8001 15.2844 51.1845 2.66846 35.6222 2.66846Z"
            fill="white" />
    </g>
    <defs>
        <clipPath id="clip0_1_528">
            <rect width="66" height="62.2286" fill="white" />
        </clipPath>
    </defs>
</svg>