<?xml version="1.0" encoding="UTF-8"?>
<svg id="Camada_2" data-name="Camada 2" xmlns="http://www.w3.org/2000/svg" viewBox="0 0 859.96 231.66">
  <defs>
    <style>
      .cls-1, .cls-2, .cls-3, .cls-4, .cls-5 {
        stroke-width: 0px;
      }

      .cls-1, .cls-3 {
        fill: #184a71;
      }

      .cls-2, .cls-3, .cls-6, .cls-5 {
        isolation: isolate;
      }

      .cls-2, .cls-4 {
        fill: #53a89a;
      }

      .cls-5 {
        fill: #54a89b;
      }
    </style>
  </defs>
  <g id="Camada_1-2" data-name="Camada 1">
    <g>
      <g class="cls-6">
        <path class="cls-1" d="m271.17,215.84v12.36c0,.26-.08.46-.24.6-.16.14-.36.22-.6.22-.22,0-.42-.07-.59-.22-.17-.14-.25-.35-.25-.6v-15.15c0-.24.09-.44.26-.6s.38-.24.6-.24c.27,0,.48.1.63.31l8.85,12.89v-12.36c0-.26.08-.46.25-.61.17-.15.36-.23.59-.23s.42.08.59.23c.17.15.25.36.25.61v15.15c0,.24-.09.44-.26.6s-.38.24-.6.24c-.27,0-.48-.1-.63-.31l-8.85-12.89Z"/>
        <path class="cls-1" d="m287.53,228.38c-.92-.52-1.63-1.24-2.13-2.16-.5-.92-.75-1.98-.75-3.19v-10c0-.26.08-.46.24-.6.16-.14.35-.22.58-.22.21,0,.39.07.55.22s.24.35.24.6v10c0,1.41.4,2.52,1.2,3.32.8.8,1.91,1.2,3.32,1.2s2.5-.4,3.31-1.21c.81-.81,1.21-1.91,1.21-3.31v-10c0-.26.08-.46.24-.6.16-.14.35-.22.58-.22.21,0,.39.07.55.22s.24.35.24.6v10c0,1.2-.26,2.27-.77,3.2-.51.93-1.23,1.65-2.15,2.16-.92.51-1.99.77-3.21.77s-2.34-.26-3.26-.78Zm4.03-17.83c-.1.22-.27.34-.53.34-.16,0-.3-.05-.42-.16s-.18-.24-.18-.42c0-.06.02-.16.05-.29l.87-2.57c.13-.38.38-.58.74-.58.19,0,.36.06.51.19s.22.3.22.53c0,.14-.03.29-.1.43l-1.16,2.52Z"/>
        <path class="cls-1" d="m302.39,228.04c-1.03-.74-1.82-1.76-2.36-3.05-.54-1.29-.81-2.74-.81-4.36s.27-3.05.81-4.35c.54-1.3,1.32-2.32,2.36-3.07,1.03-.75,2.27-1.12,3.72-1.12,1.04,0,2,.21,2.86.63.87.42,1.6,1.03,2.21,1.83.13.18.19.35.19.5,0,.22-.09.42-.26.58-.18.16-.38.24-.6.24-.26,0-.46-.1-.63-.31-.91-1.22-2.17-1.83-3.77-1.83-1.14,0-2.1.31-2.9.93-.79.62-1.38,1.45-1.77,2.49-.38,1.04-.58,2.2-.58,3.49,0,2.02.44,3.68,1.34,4.97.89,1.29,2.19,1.94,3.91,1.94.79,0,1.5-.16,2.15-.47.65-.31,1.2-.77,1.65-1.38.16-.22.37-.34.63-.34.22,0,.42.08.6.24.18.16.26.35.26.58,0,.16-.06.33-.19.5-.61.8-1.35,1.42-2.22,1.85-.87.43-1.83.65-2.87.65-1.44,0-2.68-.37-3.72-1.12Z"/>
        <path class="cls-1" d="m315.58,229.04c-.22,0-.42-.08-.59-.25s-.25-.36-.25-.59v-15.15c0-.26.08-.46.25-.61.17-.15.36-.23.59-.23s.42.08.59.23c.17.15.25.36.25.61v14.31h8.32c.26,0,.46.08.61.25.15.17.23.36.23.59s-.08.42-.23.59c-.15.17-.36.25-.61.25h-9.16Z"/>
        <path class="cls-1" d="m329.05,229.04c-.27,0-.51-.1-.72-.3-.21-.2-.31-.44-.31-.73v-14.76c0-.29.1-.53.31-.73s.45-.3.72-.3h10.15c.22,0,.42.08.59.25.17.17.25.37.25.59s-.08.42-.25.59c-.17.17-.37.25-.59.25h-9.5v5.24h7c.27,0,.48.08.63.24.14.16.22.35.22.58s-.07.42-.22.58c-.14.16-.35.24-.63.24h-7v6.59h9.5c.22,0,.42.08.59.25s.25.36.25.59-.08.42-.25.59c-.17.17-.37.25-.59.25h-10.15Z"/>
        <path class="cls-1" d="m345.57,228.04c-1.09-.74-1.92-1.76-2.49-3.05-.57-1.29-.85-2.74-.85-4.36s.29-3.08.87-4.38c.58-1.3,1.41-2.32,2.5-3.05,1.09-.74,2.37-1.11,3.85-1.11s2.78.38,3.87,1.13,1.92,1.78,2.49,3.08c.57,1.3.85,2.74.85,4.33s-.29,3.07-.87,4.36c-.58,1.29-1.41,2.31-2.5,3.05-1.09.75-2.37,1.12-3.85,1.12s-2.78-.37-3.87-1.12Zm6.94-1.43c.84-.59,1.47-1.41,1.9-2.45.42-1.04.64-2.22.64-3.53s-.22-2.51-.65-3.55c-.43-1.03-1.07-1.84-1.91-2.43-.84-.58-1.86-.88-3.04-.88s-2.23.3-3.08.9-1.49,1.42-1.91,2.45c-.42,1.03-.64,2.2-.64,3.5,0,2.05.49,3.71,1.47,4.98.98,1.27,2.36,1.9,4.16,1.9,1.2,0,2.22-.3,3.07-.89Z"/>
        <path class="cls-1" d="m372.26,212.23c2.31,0,4.03.75,5.17,2.25,1.14,1.5,1.71,3.55,1.71,6.17s-.59,4.63-1.76,6.13-2.88,2.26-5.12,2.26h-5.19c-.22,0-.42-.08-.58-.24-.16-.16-.24-.35-.24-.58v-15.17c0-.24.08-.44.24-.59.16-.15.36-.23.6-.23h5.17Zm0,15.17c1.81,0,3.14-.6,3.98-1.8s1.26-2.85,1.26-4.95c0-4.52-1.75-6.78-5.24-6.78h-4.38v13.54h4.38Z"/>
        <path class="cls-1" d="m383.32,229.04c-.27,0-.51-.1-.72-.3-.21-.2-.31-.44-.31-.73v-14.76c0-.29.1-.53.31-.73s.45-.3.72-.3h10.15c.22,0,.42.08.59.25.17.17.25.37.25.59s-.08.42-.25.59c-.17.17-.37.25-.59.25h-9.5v5.24h7c.27,0,.48.08.63.24.14.16.22.35.22.58s-.07.42-.22.58c-.14.16-.35.24-.63.24h-7v6.59h9.5c.22,0,.42.08.59.25s.25.36.25.59-.08.42-.25.59c-.17.17-.37.25-.59.25h-10.15Z"/>
        <path class="cls-1" d="m410.16,213.72l-5.46.17c-.26.02-.46-.06-.61-.23s-.23-.37-.23-.61c0-.22.08-.42.23-.59s.36-.25.61-.25h12.58c.27,0,.48.08.63.25s.22.37.22.61c0,.22-.07.42-.22.59s-.35.24-.63.23l-5.43-.17v14.48c0,.26-.08.46-.24.6-.16.14-.36.22-.6.22-.22,0-.42-.07-.59-.22-.17-.14-.25-.35-.25-.6v-14.48Z"/>
        <path class="cls-1" d="m421.46,229.04c-.27,0-.51-.1-.72-.3-.21-.2-.31-.44-.31-.73v-14.76c0-.29.1-.53.31-.73s.45-.3.72-.3h10.15c.22,0,.42.08.59.25.17.17.25.37.25.59s-.08.42-.25.59c-.17.17-.37.25-.59.25h-9.5v5.24h7c.27,0,.48.08.63.24.14.16.22.35.22.58s-.07.42-.22.58c-.14.16-.35.24-.63.24h-7v6.59h9.5c.22,0,.42.08.59.25s.25.36.25.59-.08.42-.25.59c-.17.17-.37.25-.59.25h-10.15Z"/>
        <path class="cls-1" d="m437.44,228.04c-1.03-.74-1.82-1.76-2.36-3.05-.54-1.29-.81-2.74-.81-4.36s.27-3.05.81-4.35c.54-1.3,1.32-2.32,2.36-3.07,1.03-.75,2.27-1.12,3.72-1.12,1.04,0,2,.21,2.86.63.87.42,1.6,1.03,2.21,1.83.13.18.19.35.19.5,0,.22-.09.42-.26.58-.18.16-.38.24-.6.24-.26,0-.46-.1-.63-.31-.91-1.22-2.17-1.83-3.77-1.83-1.14,0-2.1.31-2.9.93-.79.62-1.38,1.45-1.77,2.49-.38,1.04-.58,2.2-.58,3.49,0,2.02.44,3.68,1.34,4.97.89,1.29,2.19,1.94,3.91,1.94.79,0,1.5-.16,2.15-.47.65-.31,1.2-.77,1.65-1.38.16-.22.37-.34.63-.34.22,0,.42.08.6.24.18.16.26.35.26.58,0,.16-.06.33-.19.5-.61.8-1.35,1.42-2.22,1.85-.87.43-1.83.65-2.87.65-1.44,0-2.68-.37-3.72-1.12Z"/>
        <path class="cls-1" d="m451.47,215.84v12.36c0,.26-.08.46-.24.6-.16.14-.36.22-.6.22-.22,0-.42-.07-.59-.22-.17-.14-.25-.35-.25-.6v-15.15c0-.24.09-.44.26-.6s.38-.24.6-.24c.27,0,.48.1.63.31l8.85,12.89v-12.36c0-.26.08-.46.25-.61.17-.15.36-.23.59-.23s.42.08.59.23c.17.15.25.36.25.61v15.15c0,.24-.09.44-.26.6s-.38.24-.6.24c-.27,0-.48-.1-.63-.31l-8.85-12.89Z"/>
        <path class="cls-1" d="m468.06,228.04c-1.09-.74-1.92-1.76-2.49-3.05-.57-1.29-.85-2.74-.85-4.36s.29-3.08.87-4.38c.58-1.3,1.41-2.32,2.5-3.05,1.09-.74,2.37-1.11,3.85-1.11s2.78.38,3.87,1.13,1.92,1.78,2.49,3.08c.57,1.3.85,2.74.85,4.33s-.29,3.07-.87,4.36c-.58,1.29-1.41,2.31-2.5,3.05-1.09.75-2.37,1.12-3.85,1.12s-2.78-.37-3.87-1.12Zm6.94-1.43c.84-.59,1.47-1.41,1.9-2.45.42-1.04.64-2.22.64-3.53s-.22-2.51-.65-3.55c-.43-1.03-1.07-1.84-1.91-2.43-.84-.58-1.86-.88-3.04-.88s-2.23.3-3.08.9-1.49,1.42-1.91,2.45c-.42,1.03-.64,2.2-.64,3.5,0,2.05.49,3.71,1.47,4.98.98,1.27,2.36,1.9,4.16,1.9,1.2,0,2.22-.3,3.07-.89Z"/>
        <path class="cls-1" d="m482.34,229.04c-.22,0-.42-.08-.59-.25s-.25-.36-.25-.59v-15.15c0-.26.08-.46.25-.61.17-.15.36-.23.59-.23s.42.08.59.23c.17.15.25.36.25.61v14.31h8.32c.26,0,.46.08.61.25.15.17.23.36.23.59s-.08.42-.23.59c-.15.17-.36.25-.61.25h-9.16Z"/>
        <path class="cls-1" d="m496.67,228.04c-1.09-.74-1.92-1.76-2.49-3.05-.57-1.29-.85-2.74-.85-4.36s.29-3.08.87-4.38c.58-1.3,1.41-2.32,2.5-3.05,1.09-.74,2.37-1.11,3.85-1.11s2.78.38,3.87,1.13,1.92,1.78,2.49,3.08c.57,1.3.85,2.74.85,4.33s-.29,3.07-.87,4.36c-.58,1.29-1.41,2.31-2.5,3.05-1.09.75-2.37,1.12-3.85,1.12s-2.78-.37-3.87-1.12Zm6.94-1.43c.84-.59,1.47-1.41,1.9-2.45.42-1.04.64-2.22.64-3.53s-.22-2.51-.65-3.55c-.43-1.03-1.07-1.84-1.91-2.43-.84-.58-1.86-.88-3.04-.88s-2.23.3-3.08.9-1.49,1.42-1.91,2.45c-.42,1.03-.64,2.2-.64,3.5,0,2.05.49,3.71,1.47,4.98.98,1.27,2.36,1.9,4.16,1.9,1.2,0,2.22-.3,3.07-.89Z"/>
        <path class="cls-1" d="m512.82,228.08c-1.15-.72-2.02-1.73-2.63-3.02-.61-1.29-.91-2.77-.91-4.44s.3-3.12.91-4.41c.61-1.29,1.49-2.3,2.63-3.03,1.15-.73,2.5-1.09,4.05-1.09,1.15,0,2.2.2,3.15.61.94.41,1.75,1.01,2.43,1.82.14.16.22.34.22.53,0,.21-.08.4-.25.57-.17.17-.37.25-.59.25-.21,0-.4-.1-.58-.29-1.11-1.25-2.56-1.88-4.38-1.88-1.27,0-2.35.29-3.25.88s-1.58,1.4-2.04,2.45c-.47,1.05-.7,2.25-.7,3.6s.22,2.54.67,3.58c.45,1.04,1.12,1.86,2.02,2.45.9.59,2,.89,3.29.89,1.73,0,3.13-.57,4.18-1.71v-4.42h-5.07c-.26,0-.45-.08-.59-.24-.14-.16-.2-.34-.2-.55,0-.22.07-.42.2-.58.14-.16.33-.24.59-.24h5.87c.22,0,.42.08.58.24s.24.35.24.58v5.53c0,.19-.06.37-.19.53-.69.82-1.51,1.43-2.46,1.85s-2,.63-3.14.63c-1.55,0-2.91-.36-4.05-1.08Z"/>
        <path class="cls-1" d="m526.68,213.05c0-.26.08-.46.25-.61.17-.15.36-.23.59-.23.24,0,.45.08.61.23.17.15.25.36.25.61v15.15c0,.26-.08.46-.25.61-.17.15-.36.23-.59.23-.24,0-.44-.08-.61-.23s-.25-.36-.25-.61v-15.15Z"/>
        <path class="cls-1" d="m533.68,228.51c-.16.37-.42.55-.77.55-.24,0-.45-.08-.63-.23-.18-.15-.26-.35-.26-.59,0-.13.02-.22.05-.29l6.08-15.2c.06-.19.17-.34.31-.44s.3-.16.46-.16.31.05.46.16.25.25.31.44l6.08,15.22c.05.11.07.22.07.34,0,.22-.09.41-.26.55s-.39.22-.63.22c-.18,0-.34-.05-.48-.14s-.25-.23-.31-.41l-1.37-3.46h-7.77l-1.35,3.44Zm5.24-13.59l-3.34,8.46h6.68l-3.34-8.46Z"/>
        <path class="cls-1" d="m549.7,228.21c-1.12-.63-1.8-1.55-2.04-2.75-.06-.29,0-.53.19-.72.19-.19.42-.29.67-.29.16,0,.3.05.42.14.12.1.2.25.25.46.13.79.62,1.39,1.48,1.83.86.43,1.79.65,2.8.65,1.22,0,2.29-.26,3.22-.79s1.4-1.3,1.4-2.31c0-.82-.16-1.45-.47-1.9-.31-.45-.77-.78-1.38-1-.61-.22-1.48-.41-2.62-.59-1.75-.29-3.05-.77-3.9-1.45s-1.27-1.66-1.27-2.95c0-1.38.47-2.46,1.41-3.26s2.2-1.19,3.79-1.19c1.25,0,2.36.24,3.34.72.98.48,1.61,1.17,1.9,2.07.03.06.05.15.05.26,0,.21-.08.39-.24.54s-.35.23-.58.23c-.3,0-.56-.17-.77-.5-.31-.58-.78-1-1.43-1.27-.65-.27-1.41-.41-2.27-.41-1.09,0-1.95.24-2.59.71s-.95,1.17-.95,2.1c0,.75.28,1.35.84,1.78.56.43,1.49.75,2.79.96,1.4.22,2.51.5,3.34.83.83.33,1.49.83,1.96,1.51.47.68.71,1.62.71,2.8,0,.99-.29,1.85-.87,2.57-.58.72-1.35,1.26-2.31,1.62-.96.36-2,.54-3.1.54-1.39,0-2.65-.32-3.77-.95Z"/>
        <path class="cls-1" d="m570.64,229.04c-.27,0-.51-.1-.72-.3-.21-.2-.31-.44-.31-.73v-14.76c0-.29.1-.53.31-.73s.45-.3.72-.3h10.15c.22,0,.42.08.59.25.17.17.25.37.25.59s-.08.42-.25.59c-.17.17-.37.25-.59.25h-9.5v5.24h7c.27,0,.48.08.63.24.14.16.22.35.22.58s-.07.42-.22.58c-.14.16-.35.24-.63.24h-7v6.59h9.5c.22,0,.42.08.59.25s.25.36.25.59-.08.42-.25.59c-.17.17-.37.25-.59.25h-10.15Z"/>
        <path class="cls-1" d="m585.86,228.21c-1.12-.63-1.8-1.55-2.04-2.75-.06-.29,0-.53.19-.72.19-.19.42-.29.67-.29.16,0,.3.05.42.14.12.1.2.25.25.46.13.79.62,1.39,1.48,1.83.86.43,1.79.65,2.8.65,1.22,0,2.29-.26,3.22-.79s1.4-1.3,1.4-2.31c0-.82-.16-1.45-.47-1.9-.31-.45-.77-.78-1.38-1-.61-.22-1.48-.41-2.62-.59-1.75-.29-3.05-.77-3.9-1.45s-1.27-1.66-1.27-2.95c0-1.38.47-2.46,1.41-3.26s2.2-1.19,3.79-1.19c1.25,0,2.36.24,3.34.72.98.48,1.61,1.17,1.9,2.07.03.06.05.15.05.26,0,.21-.08.39-.24.54s-.35.23-.58.23c-.3,0-.56-.17-.77-.5-.31-.58-.78-1-1.43-1.27-.65-.27-1.41-.41-2.27-.41-1.09,0-1.95.24-2.59.71-.63.47-.95,1.17-.95,2.1,0,.75.28,1.35.84,1.78.56.43,1.49.75,2.79.96,1.4.22,2.51.5,3.34.83.83.33,1.49.83,1.96,1.51.47.68.71,1.62.71,2.8,0,.99-.29,1.85-.87,2.57-.58.72-1.35,1.26-2.31,1.62-.96.36-2,.54-3.1.54-1.39,0-2.65-.32-3.77-.95Z"/>
        <path class="cls-1" d="m603.68,213.72l-5.46.17c-.26.02-.46-.06-.61-.23s-.23-.37-.23-.61c0-.22.08-.42.23-.59s.36-.25.61-.25h12.58c.27,0,.48.08.63.25s.22.37.22.61c0,.22-.07.42-.22.59s-.35.24-.63.23l-5.43-.17v14.48c0,.26-.08.46-.24.6-.16.14-.36.22-.6.22-.22,0-.42-.07-.59-.22-.17-.14-.25-.35-.25-.6v-14.48Z"/>
        <path class="cls-1" d="m626.38,227.81c.11.16.17.32.17.48,0,.21-.09.39-.26.54-.18.15-.38.23-.63.23-.27,0-.49-.11-.65-.34l-4.59-6.18-4.83.05v5.6c0,.26-.08.46-.24.6-.16.14-.35.22-.58.22s-.42-.07-.58-.22c-.16-.14-.24-.35-.24-.6v-15.17c0-.22.08-.42.24-.58.16-.16.35-.24.58-.24h4.47c2.12,0,3.79.44,5.03,1.31,1.23.87,1.85,2.17,1.85,3.88,0,1.19-.36,2.2-1.08,3.04-.72.84-1.68,1.43-2.89,1.77l4.23,5.6Zm-7.14-6.85c1.64,0,2.92-.28,3.85-.85s1.4-1.47,1.4-2.71c0-2.37-1.75-3.56-5.24-3.56h-3.66v7.12h3.66Z"/>
        <path class="cls-1" d="m630.37,228.51c-.16.37-.42.55-.77.55-.24,0-.45-.08-.63-.23-.18-.15-.26-.35-.26-.59,0-.13.02-.22.05-.29l6.08-15.2c.06-.19.17-.34.31-.44s.3-.16.46-.16.31.05.46.16.25.25.31.44l6.08,15.22c.05.11.07.22.07.34,0,.22-.09.41-.26.55s-.39.22-.63.22c-.18,0-.34-.05-.48-.14s-.25-.23-.31-.41l-1.37-3.46h-7.77l-1.35,3.44Zm5.24-13.59l-3.34,8.46h6.68l-3.34-8.46Z"/>
        <path class="cls-1" d="m648.53,213.72l-5.46.17c-.26.02-.46-.06-.61-.23s-.23-.37-.23-.61c0-.22.08-.42.23-.59s.36-.25.61-.25h12.58c.27,0,.48.08.63.25s.22.37.22.61c0,.22-.07.42-.22.59s-.35.24-.63.23l-5.43-.17v14.48c0,.26-.08.46-.24.6-.16.14-.36.22-.6.22-.22,0-.42-.07-.59-.22-.17-.14-.25-.35-.25-.6v-14.48Z"/>
        <path class="cls-1" d="m659.83,229.04c-.27,0-.51-.1-.72-.3-.21-.2-.31-.44-.31-.73v-14.76c0-.29.1-.53.31-.73s.45-.3.72-.3h10.15c.22,0,.42.08.59.25.17.17.25.37.25.59s-.08.42-.25.59c-.17.17-.37.25-.59.25h-9.5v5.24h7c.27,0,.48.08.63.24.14.16.22.35.22.58s-.07.42-.22.58c-.14.16-.35.24-.63.24h-7v6.59h9.5c.22,0,.42.08.59.25s.25.36.25.59-.08.42-.25.59c-.17.17-.37.25-.59.25h-10.15Zm5.82-18.49c-.1.22-.27.34-.53.34-.16,0-.3-.05-.42-.16s-.18-.24-.18-.42c0-.06.02-.16.05-.29l.87-2.57c.13-.38.38-.58.74-.58.19,0,.36.06.51.19s.22.3.22.53c0,.14-.03.29-.1.43l-1.16,2.52Z"/>
        <path class="cls-1" d="m676.19,228.08c-1.15-.72-2.02-1.73-2.63-3.02-.61-1.29-.91-2.77-.91-4.44s.3-3.12.91-4.41c.61-1.29,1.49-2.3,2.63-3.03,1.15-.73,2.5-1.09,4.05-1.09,1.15,0,2.2.2,3.15.61.94.41,1.75,1.01,2.43,1.82.14.16.22.34.22.53,0,.21-.08.4-.25.57-.17.17-.37.25-.59.25-.21,0-.4-.1-.58-.29-1.11-1.25-2.56-1.88-4.38-1.88-1.27,0-2.35.29-3.25.88s-1.58,1.4-2.04,2.45c-.47,1.05-.7,2.25-.7,3.6s.22,2.54.67,3.58c.45,1.04,1.12,1.86,2.02,2.45.9.59,2,.89,3.29.89,1.73,0,3.13-.57,4.18-1.71v-4.42h-5.07c-.26,0-.45-.08-.59-.24-.14-.16-.2-.34-.2-.55,0-.22.07-.42.2-.58.14-.16.33-.24.59-.24h5.87c.22,0,.42.08.58.24s.24.35.24.58v5.53c0,.19-.06.37-.19.53-.69.82-1.51,1.43-2.46,1.85s-2,.63-3.14.63c-1.55,0-2.91-.36-4.05-1.08Z"/>
        <path class="cls-1" d="m690.06,213.05c0-.26.08-.46.25-.61.17-.15.36-.23.59-.23.24,0,.45.08.61.23.17.15.25.36.25.61v15.15c0,.26-.08.46-.25.61-.17.15-.36.23-.59.23-.24,0-.44-.08-.61-.23s-.25-.36-.25-.61v-15.15Z"/>
        <path class="cls-1" d="m698.32,228.04c-1.03-.74-1.82-1.76-2.36-3.05-.54-1.29-.81-2.74-.81-4.36s.27-3.05.81-4.35c.54-1.3,1.32-2.32,2.36-3.07,1.03-.75,2.27-1.12,3.72-1.12,1.04,0,2,.21,2.86.63.87.42,1.6,1.03,2.21,1.83.13.18.19.35.19.5,0,.22-.09.42-.26.58-.18.16-.38.24-.6.24-.26,0-.46-.1-.63-.31-.91-1.22-2.17-1.83-3.77-1.83-1.14,0-2.1.31-2.9.93-.79.62-1.38,1.45-1.77,2.49-.38,1.04-.58,2.2-.58,3.49,0,2.02.44,3.68,1.34,4.97.89,1.29,2.19,1.94,3.91,1.94.79,0,1.5-.16,2.15-.47.65-.31,1.2-.77,1.65-1.38.16-.22.37-.34.63-.34.22,0,.42.08.6.24.18.16.26.35.26.58,0,.16-.06.33-.19.5-.61.8-1.35,1.42-2.22,1.85-.87.43-1.83.65-2.87.65-1.44,0-2.68-.37-3.72-1.12Z"/>
        <path class="cls-1" d="m711.07,228.51c-.16.37-.42.55-.77.55-.24,0-.45-.08-.63-.23-.18-.15-.26-.35-.26-.59,0-.13.02-.22.05-.29l6.08-15.2c.06-.19.17-.34.31-.44s.3-.16.46-.16.31.05.46.16.25.25.31.44l6.08,15.22c.05.11.07.22.07.34,0,.22-.09.41-.26.55s-.39.22-.63.22c-.18,0-.34-.05-.48-.14s-.25-.23-.31-.41l-1.37-3.46h-7.77l-1.35,3.44Zm5.24-13.59l-3.34,8.46h6.68l-3.34-8.46Z"/>
        <path class="cls-1" d="m727.09,228.21c-1.12-.63-1.8-1.55-2.04-2.75-.06-.29,0-.53.19-.72.19-.19.42-.29.67-.29.16,0,.3.05.42.14.12.1.2.25.25.46.13.79.62,1.39,1.48,1.83.86.43,1.79.65,2.8.65,1.22,0,2.29-.26,3.22-.79s1.4-1.3,1.4-2.31c0-.82-.16-1.45-.47-1.9-.31-.45-.77-.78-1.38-1-.61-.22-1.48-.41-2.62-.59-1.75-.29-3.05-.77-3.9-1.45s-1.27-1.66-1.27-2.95c0-1.38.47-2.46,1.41-3.26s2.2-1.19,3.79-1.19c1.25,0,2.36.24,3.34.72.98.48,1.61,1.17,1.9,2.07.03.06.05.15.05.26,0,.21-.08.39-.24.54s-.35.23-.58.23c-.3,0-.56-.17-.77-.5-.31-.58-.78-1-1.43-1.27-.65-.27-1.41-.41-2.27-.41-1.09,0-1.95.24-2.59.71s-.95,1.17-.95,2.1c0,.75.28,1.35.84,1.78.56.43,1.49.75,2.79.96,1.4.22,2.51.5,3.34.83.83.33,1.49.83,1.96,1.51.47.68.71,1.62.71,2.8,0,.99-.29,1.85-.87,2.57-.58.72-1.35,1.26-2.31,1.62-.96.36-2,.54-3.1.54-1.39,0-2.65-.32-3.77-.95Z"/>
        <path class="cls-1" d="m748.03,229.04c-.27,0-.51-.1-.72-.3-.21-.2-.31-.44-.31-.73v-14.76c0-.29.1-.53.31-.73s.45-.3.72-.3h10.15c.22,0,.42.08.59.25.17.17.25.37.25.59s-.08.42-.25.59c-.17.17-.37.25-.59.25h-9.5v5.24h7c.27,0,.48.08.63.24.14.16.22.35.22.58s-.07.42-.22.58c-.14.16-.35.24-.63.24h-7v6.59h9.5c.22,0,.42.08.59.25s.25.36.25.59-.08.42-.25.59c-.17.17-.37.25-.59.25h-10.15Z"/>
        <path class="cls-1" d="m775.06,212.61c.19-.26.42-.38.7-.38.22,0,.42.08.59.23s.25.35.25.59v15.15c0,.26-.08.46-.25.61s-.37.23-.59.23-.42-.08-.59-.23c-.17-.15-.25-.36-.25-.61v-12.48l-4.81,7.21c-.21.29-.45.43-.72.43s-.51-.14-.7-.43l-4.83-7.21v12.48c0,.26-.08.46-.24.6-.16.14-.36.22-.6.22-.22,0-.42-.07-.59-.22-.17-.14-.25-.35-.25-.6v-15.15c0-.26.09-.46.26-.63s.38-.24.6-.24c.29,0,.51.13.67.38l5.68,8.44,5.67-8.39Z"/>
        <path class="cls-1" d="m788.55,228.21c-1.12-.63-1.8-1.55-2.04-2.75-.06-.29,0-.53.19-.72.19-.19.42-.29.67-.29.16,0,.3.05.42.14.12.1.2.25.25.46.13.79.62,1.39,1.48,1.83.86.43,1.79.65,2.8.65,1.22,0,2.29-.26,3.22-.79s1.4-1.3,1.4-2.31c0-.82-.16-1.45-.47-1.9-.31-.45-.77-.78-1.38-1-.61-.22-1.48-.41-2.62-.59-1.75-.29-3.05-.77-3.9-1.45s-1.27-1.66-1.27-2.95c0-1.38.47-2.46,1.41-3.26s2.2-1.19,3.79-1.19c1.25,0,2.36.24,3.34.72.98.48,1.61,1.17,1.9,2.07.03.06.05.15.05.26,0,.21-.08.39-.24.54s-.35.23-.58.23c-.3,0-.56-.17-.77-.5-.31-.58-.78-1-1.43-1.27-.65-.27-1.41-.41-2.27-.41-1.09,0-1.95.24-2.59.71s-.95,1.17-.95,2.1c0,.75.28,1.35.84,1.78.56.43,1.49.75,2.79.96,1.4.22,2.51.5,3.34.83.83.33,1.49.83,1.96,1.51.47.68.71,1.62.71,2.8,0,.99-.29,1.85-.87,2.57-.58.72-1.35,1.26-2.31,1.62-.96.36-2,.54-3.1.54-1.39,0-2.65-.32-3.77-.95Z"/>
        <path class="cls-1" d="m802.04,228.51c-.16.37-.42.55-.77.55-.24,0-.45-.08-.63-.23-.18-.15-.26-.35-.26-.59,0-.13.02-.22.05-.29l6.08-15.2c.06-.19.17-.34.31-.44s.3-.16.46-.16.31.05.46.16.25.25.31.44l6.08,15.22c.05.11.07.22.07.34,0,.22-.09.41-.26.55s-.39.22-.63.22c-.18,0-.34-.05-.48-.14s-.25-.23-.31-.41l-1.37-3.46h-7.77l-1.35,3.44Zm5.24-13.59l-3.34,8.46h6.68l-3.34-8.46Z"/>
        <path class="cls-1" d="m819.36,228.38c-.92-.52-1.63-1.24-2.13-2.16-.5-.92-.75-1.98-.75-3.19v-10c0-.26.08-.46.24-.6.16-.14.35-.22.58-.22.21,0,.39.07.55.22s.24.35.24.6v10c0,1.41.4,2.52,1.2,3.32s1.91,1.2,3.32,1.2,2.5-.4,3.31-1.21c.81-.81,1.21-1.91,1.21-3.31v-10c0-.26.08-.46.24-.6.16-.14.35-.22.58-.22.21,0,.39.07.55.22s.24.35.24.6v10c0,1.2-.26,2.27-.77,3.2-.51.93-1.23,1.65-2.15,2.16-.92.51-1.99.77-3.21.77s-2.34-.26-3.26-.78Zm4.03-17.83c-.1.22-.27.34-.53.34-.16,0-.3-.05-.42-.16s-.18-.24-.18-.42c0-.06.02-.16.05-.29l.87-2.57c.13-.38.38-.58.74-.58.19,0,.36.06.51.19s.22.3.22.53c0,.14-.03.29-.1.43l-1.16,2.52Z"/>
        <path class="cls-1" d="m837.91,212.23c2.31,0,4.03.75,5.17,2.25,1.14,1.5,1.71,3.55,1.71,6.17s-.59,4.63-1.76,6.13-2.88,2.26-5.12,2.26h-5.19c-.22,0-.42-.08-.58-.24-.16-.16-.24-.35-.24-.58v-15.17c0-.24.08-.44.24-.59.16-.15.36-.23.6-.23h5.17Zm0,15.17c1.81,0,3.14-.6,3.98-1.8s1.26-2.85,1.26-4.95c0-4.52-1.75-6.78-5.24-6.78h-4.38v13.54h4.38Z"/>
        <path class="cls-1" d="m848.98,229.04c-.27,0-.51-.1-.72-.3-.21-.2-.31-.44-.31-.73v-14.76c0-.29.1-.53.31-.73s.45-.3.72-.3h10.15c.22,0,.42.08.59.25.17.17.25.37.25.59s-.08.42-.25.59c-.17.17-.37.25-.59.25h-9.5v5.24h7c.27,0,.48.08.63.24.14.16.22.35.22.58s-.07.42-.22.58c-.14.16-.35.24-.63.24h-7v6.59h9.5c.22,0,.42.08.59.25s.25.36.25.59-.08.42-.25.59c-.17.17-.37.25-.59.25h-10.15Z"/>
      </g>
      <g>
        <path class="cls-4" d="m0,212.61l25.55-55.11s.62-1.74.66-1.6c4.73,19.01,26.15,42.04,26.15,42.04,0,0-15.41,34.86-52.36,14.66Z"/>
        <rect class="cls-4" x="115.89" y="84.72" width="17.73" height="17.73"/>
        <rect class="cls-4" x="133.62" y="56.46" width="15.44" height="15.44"/>
        <rect class="cls-4" x="158.52" y="45.07" width="14.53" height="14.53"/>
        <rect class="cls-4" x="130.3" y="32.01" width="10.89" height="11.45"/>
        <rect class="cls-4" x="170.2" y="27.7" width="10.89" height="11.45"/>
        <rect class="cls-4" x="158.52" y="18.22" width="5.74" height="6.03"/>
        <path class="cls-3" d="m195.2,84.76c-15.52.66-21.91,10.2-25.62,16.92-8.45,15.34-30.54,63.05-30.54,63.05,0,0-20.45-50.83-30.73-65.79-11.25-16.36-21.24-13.52-31.11-13.42-11.71.12-22.22,9.1-26.58,15.42-6.53,9.45-20.08,42.67-20.08,42.67,2.57,24.36,26.54,47.87,26.54,47.87l22.61-57.28,11.58,25.86,17.73,39.9c10.1,18.83,34.07,18.74,44.41,15.49,13.3-4.19,19.43-22.32,19.43-22.32,0,0,44.04-95.87,45.52-102.77,0,0-8.91-6.2-23.15-5.59Zm-96.76,58.42h-8.06v-7.6h8.06v7.6Zm4.37-22.51h-16.01v-16.01h16.01v16.01Zm13.08,15.39h-10.96v-10.34h10.96v10.34Z"/>
        <path class="cls-2" d="m135.74,0C71.77,0,19.91,51.86,19.91,115.83c0,13.21,2.2,26.89,6.27,38.72.84-3.65,4.36-10.94,4.36-10.94,0,0-3.6-15.12-3.6-27.78C26.94,55.74,75.65,7.03,135.74,7.03s108.8,48.71,108.8,108.8-48.71,108.8-108.8,108.8c-31.62,0-58.79-11.61-78.67-33.15.16.17-3.71,5.5-3.83,5.62,21.07,21.84,49.75,34.57,82.5,34.57,63.97,0,115.83-51.86,115.83-115.83S199.71,0,135.74,0Z"/>
      </g>
      <g>
        <path class="cls-3" d="m746.85,192.17v-19.09c3.32,0,6.38,0,9.45,0,22.45,0,44.89.06,67.34,0,9.12-.02,10.07-1.61,10.65-10.7.53-8.33-3.82-9.72-10.63-9.65-16.64.16-33.28.15-49.91-.07-4.7-.06-9.53-.54-14.06-1.75-7.94-2.13-13.1-7.6-12.86-15.98.34-11.65-4.26-24.86,8.36-33.41,2.1-1.42,4.91-2.48,7.41-2.52,14.96-.23,29.93-.11,45.43-.11v18.96c-8.68,0-17.52-.01-26.36,0-4.85.01-8.9.9-9.59,6.96-.9,7.91,1.23,10.68,9.34,10.75,18.48.17,36.98-.09,55.45.36,16.77.42,22.62,6.78,22.78,23.47.04,4.75.15,9.52-.14,14.26-.66,10.68-5.78,17.98-16.18,18.24-31.85.78-63.74.28-96.49.28Z"/>
        <path class="cls-3" d="m486.31,98.53c8.88,0,17.33.06,25.51.06,0,2.49-.12,6.2-.12,6.2,0,0,.17,34.32-.05,51.48-.31,23.84-11.41,35.6-35.33,36.52-16.87.65-33.8.63-50.68-.01-22.92-.87-34.13-11.62-35.19-34.27-.87-18.7-.29-56.22-.29-56.22,0,0-.06-1.88-.02-3.38,8.01,0,16.67.08,25.26.08-.08,2.76.06,7.49.06,7.49,0,0,0,31.15.1,46.73.08,12.58,4.72,17.47,17.03,17.66,12.14.19,24.29.26,36.43,0,12.16-.27,17.2-5.56,17.27-17.74.1-17.9.03-35.8.03-54.6Z"/>
        <path class="cls-3" d="m270.68,98.53c24.12,0,48.15-.63,72.14.2,19.1.66,30.5,11.95,31.36,31.04.93,20.74.21,41.55.21,63.29-7.29,0-25.06-.03-25.06-.03,0,0,.03-5.41,0-6.32-.32-16.1-.13-32.21-.22-48.31-.07-13.72-4.32-17.98-17.92-18.14-6.34-.07-12.68-.12-19.01,0-11.76.25-16.94,5.13-17.15,16.99-.3,16.63-.1,33.27-.15,49.9,0,1.56,0,3.23,0,5.82-7.11,0-21.56-.12-21.56-.12l-3.78-.04-.06-4.33s0-58.6.13-87.91c0-.67.68-1.33,1.07-2.05Z"/>
        <path class="cls-3" d="m563.1,72.21c0,7.44.07,13.3-.07,19.55-.05,2.09-.02,6.95-.02,6.95l11.68-.08s9.74.23,18.05.23c0,6.91.03,12.74.03,20.16-7.29,0-18.14-.11-18.14-.11l-11.62.05s-.09,5.81-.05,7.58c.43,19,.17,38.02.18,57.03,0,2.82,0,5.65,0,8.95h-25.6c0-7.65,0-14.91,0-22.18-.01-15.05-.08-30.1,0-45.15.01-2.45-.1-6.29-.1-6.29h-12.97s-.05-16.93-.05-20.16c1.58.04,13.09.04,13.09.04l.04-12.47s0-8.94,0-14.12h25.54Z"/>
        <path class="cls-3" d="m728.78,154.88c0-10.09-.01-19.03,0-27.97.03-19.59-7.88-28.19-27.51-28.56-21.1-.41-42.22-.13-63.33,0-3.66.02-7.37.57-10.96,1.31-11.96,2.48-19.37,9.2-20.08,21.17-.95,15.99-1.01,32.14.18,48.1.91,12.29,9.06,21.45,21.33,22.22,18.06,1.12,31.69,1.29,49.69.96-.16-5.72-.16-12.41-.16-12.41l-.08-6.65-6.68-.07s-17.41.11-26.12.06c-12.81-.08-12.47-3.79-12.07-18.16h95.79Zm-80.94-37.3c13.7-.03,27.4-.04,41.09,0,12.1.04,14.24,4.47,14.2,15.85,0,.8-.1,4.63-.1,4.63,0,0-3.47-.07-4.34-.05-21.83.3-43.67.21-65.9.21.11-16.76.24-20.61,15.05-20.64Z"/>
        <rect class="cls-5" x="812.3" y="98.86" width="26.72" height="19.16"/>
      </g>
    </g>
  </g>
</svg>