<svg width="97" height="97" viewBox="0 0 97 97" fill="none" xmlns="http://www.w3.org/2000/svg">
<g clip-path="url(#clip0_1_414)">
<path d="M48.6624 33.8408C49.9974 33.8408 51.0786 32.7589 51.0786 31.4246C51.0786 30.0903 49.9974 29.0083 48.6624 29.0083C37.9872 29.0083 29.333 37.6624 29.333 48.3384C29.333 59.0136 37.9872 67.6678 48.6624 67.6678C59.3383 67.6678 67.9925 59.0136 67.9925 48.3384C67.9925 47.0034 66.9105 45.9221 65.5762 45.9221C64.2419 45.9221 63.16 47.0034 63.16 48.3384C63.16 56.345 56.6697 62.836 48.6624 62.836C40.6558 62.836 34.1648 56.345 34.1648 48.3384C34.1648 40.3311 40.6558 33.8408 48.6624 33.8408Z" fill="white"/>
<path d="M94.7642 33.9868C94.3445 32.7191 92.9769 32.0316 91.7085 32.4512C90.4696 32.8612 89.7799 34.18 90.1492 35.4314C97.3751 58.4418 84.5796 82.953 61.5692 90.1789C38.5596 97.4047 14.0484 84.6092 6.8225 61.5989C-0.404092 38.5885 12.3921 14.0773 35.4018 6.85142C43.9197 4.17688 53.052 4.17688 61.5692 6.85142C62.848 7.23699 64.1971 6.51322 64.5827 5.23441C64.9623 3.97485 64.2659 2.6435 63.0145 2.23647C37.4643 -5.77975 10.2526 8.43439 2.23641 33.9854C-5.77982 59.5356 8.43507 86.7472 33.9853 94.7635C59.5363 102.78 86.7472 88.5656 94.7634 63.0146C97.7281 53.5656 97.7281 43.4358 94.7642 33.9868Z" fill="white"/>
<path d="M53.2636 17.2622C53.2761 15.8865 52.2193 14.7365 50.8473 14.6336C50.1257 14.5722 49.4035 14.5107 48.6627 14.5107C29.9801 14.5107 14.835 29.6559 14.835 48.3384C14.835 67.0203 29.9801 82.1654 48.6627 82.1654C67.3445 82.1654 82.4896 67.0203 82.4896 48.3384C82.4896 47.4644 82.4363 46.5912 82.329 45.7238C82.1359 44.3977 80.9044 43.4793 79.5783 43.6724C78.2521 43.8648 77.3337 45.097 77.5261 46.4232C77.5335 46.4735 77.5424 46.5231 77.5527 46.5734C77.6053 47.1588 77.6571 47.739 77.6571 48.337C77.6578 64.3509 64.6766 77.3321 48.6634 77.3336C32.6495 77.3344 19.6682 64.3524 19.6675 48.3392C19.6667 32.326 32.6472 19.344 48.6612 19.3433H48.6619C49.2614 19.3433 49.8423 19.3951 50.4262 19.4469L50.8791 19.4846C52.1416 19.5386 53.2088 18.5588 53.2621 17.2963C53.2628 17.2845 53.2628 17.2733 53.2636 17.2622Z" fill="white"/>
<path d="M63.1601 21.7598V30.4243L46.9544 46.6299C45.9946 47.5572 45.968 49.0869 46.8952 50.0467C47.8225 51.0066 49.3522 51.0332 50.312 50.1059C50.332 50.0867 50.352 50.0667 50.3713 50.0467L66.5769 33.8411H75.2414C75.8823 33.8411 76.4965 33.5865 76.9502 33.1329L91.447 18.6353C92.3906 17.6917 92.3906 16.162 91.447 15.2185C90.9941 14.7656 90.3798 14.511 89.739 14.511H82.4902V7.2622C82.4902 5.92789 81.4082 4.84594 80.0732 4.84668C79.433 4.84668 78.8188 5.10126 78.3659 5.55417L63.8683 20.0518C63.4146 20.5047 63.1601 21.1189 63.1601 21.7598ZM67.9926 22.7603L77.6576 13.0953V16.9273C77.6576 18.2616 78.7396 19.3435 80.0739 19.3435H83.9059L74.2408 29.0086H67.9926V22.7603Z" fill="white"/>
</g>
<defs>
<clipPath id="clip0_1_414">
<rect width="97" height="97" fill="white"/>
</clipPath>
</defs>
</svg>
