<svg width="23" height="23" viewBox="0 0 23 23" fill="none" xmlns="http://www.w3.org/2000/svg">
<g clip-path="url(#clip0_1_570)">
<path d="M11.5 23C17.8513 23 23 17.8513 23 11.5C23 5.14873 17.8513 0 11.5 0C5.14873 0 0 5.14873 0 11.5C0 17.8513 5.14873 23 11.5 23Z" fill="#6DA544"/>
<path d="M11.5 4.5L21 11.5L11.5 18.5L2 11.5L11.5 4.5Z" fill="#FFDA44"/>
<path d="M11.5 15.5C13.7091 15.5 15.5 13.7091 15.5 11.5C15.5 9.29085 13.7091 7.5 11.5 7.5C9.29085 7.5 7.5 9.29085 7.5 11.5C7.5 13.7091 9.29085 15.5 11.5 15.5Z" fill="#F0F0F0"/>
<path d="M9.49969 11.25C8.80412 11.25 8.13285 11.3558 7.50098 11.5521C7.52896 13.7371 9.30805 15.5 11.4997 15.5C12.8549 15.5 14.0518 14.8254 14.7754 13.7944C13.5374 12.2447 11.6327 11.25 9.49969 11.25Z" fill="#0052B4"/>
<path d="M15.4258 12.2663C15.474 12.0182 15.5 11.7622 15.5 11.5C15.5 9.29081 13.7091 7.5 11.5 7.5C9.85163 7.5 8.43659 8.49731 7.82422 9.92124C8.36553 9.80907 8.92597 9.75 9.50003 9.75C11.8233 9.74996 13.925 10.7157 15.4258 12.2663Z" fill="#0052B4"/>
</g>
<defs>
<clipPath id="clip0_1_570">
<rect width="23" height="23" fill="white"/>
</clipPath>
</defs>
</svg>
