<svg width="27" height="27" viewBox="0 0 27 27" fill="none" xmlns="http://www.w3.org/2000/svg">
<g clip-path="url(#clip0_797_422)">
<circle cx="13.5" cy="13.5" r="13.5" fill="white"/>
<g clip-path="url(#clip1_797_422)">
<path d="M13.5 25C19.8513 25 25 19.8513 25 13.5C25 7.14873 19.8513 2 13.5 2C7.14873 2 2 7.14873 2 13.5C2 19.8513 7.14873 25 13.5 25Z" fill="#6DA544"/>
<path d="M13.5 6.5L23 13.5L13.5 20.5L4 13.5L13.5 6.5Z" fill="#FFDA44"/>
<path d="M13.5 17.5C15.7091 17.5 17.5 15.7091 17.5 13.5C17.5 11.2909 15.7091 9.5 13.5 9.5C11.2909 9.5 9.5 11.2909 9.5 13.5C9.5 15.7091 11.2909 17.5 13.5 17.5Z" fill="#F0F0F0"/>
<path d="M11.4997 13.25C10.8041 13.25 10.1328 13.3558 9.50098 13.5521C9.52896 15.7371 11.308 17.5 13.4997 17.5C14.8549 17.5 16.0518 16.8254 16.7754 15.7944C15.5374 14.2447 13.6327 13.25 11.4997 13.25Z" fill="#0052B4"/>
<path d="M17.4258 14.2663C17.474 14.0182 17.5 13.7622 17.5 13.5C17.5 11.2908 15.7091 9.5 13.5 9.5C11.8516 9.5 10.4366 10.4973 9.82422 11.9212C10.3655 11.8091 10.926 11.75 11.5 11.75C13.8233 11.75 15.925 12.7157 17.4258 14.2663Z" fill="#0052B4"/>
</g>
</g>
<defs>
<clipPath id="clip0_797_422">
<rect width="27" height="27" fill="white"/>
</clipPath>
<clipPath id="clip1_797_422">
<rect width="23" height="23" fill="white" transform="translate(2 2)"/>
</clipPath>
</defs>
</svg>
