<svg width="27" height="27" viewBox="0 0 27 27" fill="none" xmlns="http://www.w3.org/2000/svg">
<g clip-path="url(#clip0_1_551)">
<path d="M16.084 13.5C16.084 14.9271 14.9271 16.084 13.5 16.084C12.0729 16.084 10.916 14.9271 10.916 13.5C10.916 12.0729 12.0729 10.916 13.5 10.916C14.9271 10.916 16.084 12.0729 16.084 13.5Z" fill="white"/>
<path d="M19.5429 8.92831C19.4187 8.59171 19.2205 8.28705 18.963 8.03697C18.7129 7.77948 18.4085 7.58131 18.0717 7.4571C17.7985 7.35101 17.3882 7.22474 16.6324 7.19034C15.8148 7.15305 15.5697 7.14502 13.4998 7.14502C11.4298 7.14502 11.1847 7.15285 10.3673 7.19013C9.61151 7.22474 9.20097 7.35101 8.92802 7.4571C8.59122 7.58131 8.28656 7.77948 8.03669 8.03697C7.7792 8.28705 7.58103 8.59151 7.45661 8.92831C7.35052 9.20145 7.22425 9.612 7.18985 10.3678C7.15257 11.1852 7.14453 11.4303 7.14453 13.5003C7.14453 15.5702 7.15257 15.8153 7.18985 16.6329C7.22425 17.3887 7.35052 17.799 7.45661 18.0722C7.58103 18.409 7.77899 18.7134 8.03648 18.9635C8.28656 19.221 8.59102 19.4192 8.92782 19.5434C9.20097 19.6497 9.61151 19.7759 10.3673 19.8103C11.1847 19.8476 11.4296 19.8554 13.4996 19.8554C15.5699 19.8554 15.815 19.8476 16.6322 19.8103C17.388 19.7759 17.7985 19.6497 18.0717 19.5434C18.7477 19.2826 19.2821 18.7482 19.5429 18.0722C19.649 17.799 19.7752 17.3887 19.8098 16.6329C19.8471 15.8153 19.855 15.5702 19.855 13.5003C19.855 11.4303 19.8471 11.1852 19.8098 10.3678C19.7754 9.612 19.6492 9.20145 19.5429 8.92831ZM13.4998 17.4808C11.3013 17.4808 9.51902 15.6987 9.51902 13.5001C9.51902 11.3016 11.3013 9.51951 13.4998 9.51951C15.6982 9.51951 17.4805 11.3016 17.4805 13.5001C17.4805 15.6987 15.6982 17.4808 13.4998 17.4808ZM17.6378 10.2924C17.1241 10.2924 16.7076 9.87588 16.7076 9.36213C16.7076 8.84838 17.1241 8.43186 17.6378 8.43186C18.1516 8.43186 18.5681 8.84838 18.5681 9.36213C18.5679 9.87588 18.1516 10.2924 17.6378 10.2924Z" fill="white"/>
<path d="M13.5 0C6.0453 0 0 6.0453 0 13.5C0 20.9547 6.0453 27 13.5 27C20.9547 27 27 20.9547 27 13.5C27 6.0453 20.9547 0 13.5 0ZM21.2052 16.696C21.1677 17.5212 21.0365 18.0846 20.8449 18.5777C20.4422 19.619 19.619 20.4422 18.5777 20.8449C18.0848 21.0365 17.5212 21.1675 16.6962 21.2052C15.8695 21.2429 15.6055 21.252 13.5002 21.252C11.3947 21.252 11.1309 21.2429 10.304 21.2052C9.479 21.1675 8.91541 21.0365 8.42246 20.8449C7.90501 20.6502 7.43658 20.3452 7.04931 19.9507C6.65504 19.5636 6.34996 19.095 6.1553 18.5777C5.96372 18.0848 5.8325 17.5212 5.79501 16.6962C5.7569 15.8693 5.74805 15.6053 5.74805 13.5C5.74805 11.3947 5.7569 11.1307 5.79481 10.304C5.8323 9.4788 5.96331 8.91541 6.15488 8.42226C6.34955 7.90501 6.65483 7.43637 7.04931 7.04931C7.43637 6.65483 7.90501 6.34975 8.42226 6.15509C8.91541 5.96352 9.4788 5.8325 10.304 5.79481C11.1307 5.75711 11.3947 5.74805 13.5 5.74805C15.6053 5.74805 15.8693 5.75711 16.696 5.79501C17.5212 5.8325 18.0846 5.96352 18.5777 6.15488C19.095 6.34955 19.5636 6.65483 19.9509 7.04931C20.3452 7.43658 20.6505 7.90501 20.8449 8.42226C21.0367 8.91541 21.1677 9.4788 21.2054 10.304C21.2431 11.1307 21.252 11.3947 21.252 13.5C21.252 15.6053 21.2431 15.8693 21.2052 16.696Z" fill="white"/>
</g>
<defs>
<clipPath id="clip0_1_551">
<rect width="27" height="27" fill="white"/>
</clipPath>
</defs>
</svg>
