<svg width="138" height="138" viewBox="0 0 138 138" fill="none" xmlns="http://www.w3.org/2000/svg">
<path d="M69.1056 29.7441C49.5737 29.7441 33.6162 45.7016 33.6162 65.2335C33.6162 75.4463 38.0843 85.2761 45.6162 91.9144C51.2332 97.5314 50.7226 109.531 50.5949 109.659C50.5949 110.297 50.7226 110.808 51.2332 111.319C51.6162 111.702 52.2545 111.957 52.7651 111.957H85.3183C85.9566 111.957 86.4673 111.702 86.8502 111.319C87.2332 110.936 87.4885 110.297 87.4885 109.659C87.4885 109.531 86.8503 97.5314 92.4673 91.9144C92.5949 91.7867 92.7226 91.659 92.8502 91.5314C100.255 84.7654 104.595 75.191 104.595 65.2335C104.595 45.7016 88.6375 29.7441 69.1056 29.7441ZM89.5311 88.5952C89.4034 88.7229 89.1481 88.9782 89.1481 89.1059C84.1694 94.4676 83.2758 103.276 83.1481 107.489H54.9354C54.8077 103.276 53.9141 94.0846 48.5524 88.5952C41.7864 82.7229 37.829 74.1697 37.829 65.1058C37.829 47.8718 51.7439 33.9569 68.9779 33.9569C86.212 33.9569 100.127 47.8718 100.127 65.1058C100.127 74.1697 96.2971 82.7229 89.5311 88.5952Z" fill="#231F20"/>
<path d="M68.9778 38.8086C67.8289 38.8086 66.8076 39.8299 66.8076 40.9788C66.8076 42.1277 67.8289 43.149 68.9778 43.149C81.8714 43.149 92.2119 53.6171 92.2119 66.3831C92.2119 67.532 93.2332 68.5533 94.3821 68.5533C95.531 68.5533 96.5523 67.532 96.5523 66.3831C96.68 51.1916 84.297 38.8086 68.9778 38.8086Z" fill="#231F20"/>
<path d="M83.1474 114.383H54.807C51.8708 114.383 49.4453 116.808 49.4453 119.745C49.4453 122.681 51.8708 125.106 54.807 125.106H83.0198C86.0836 124.979 88.5091 122.681 88.5091 119.745C88.5091 116.808 86.0836 114.383 83.1474 114.383ZM83.1474 120.638H54.807C54.2964 120.638 53.7857 120.255 53.7857 119.617C53.7857 118.979 54.1687 118.596 54.807 118.596H83.0198C83.5304 118.596 84.0411 118.979 84.0411 119.617C84.0411 120.255 83.6581 120.638 83.1474 120.638Z" fill="#231F20"/>
<path d="M78.9348 127.277H59.0199C56.0837 127.277 53.6582 129.703 53.6582 132.639C53.6582 135.575 56.0837 138.001 59.0199 138.001H78.9348C81.871 138.001 84.2965 135.575 84.2965 132.639C84.2965 129.575 81.871 127.277 78.9348 127.277ZM78.9348 133.533H59.0199C58.5093 133.533 57.9986 133.15 57.9986 132.511C57.9986 131.873 58.3816 131.49 59.0199 131.49H78.9348C79.4454 131.49 79.9561 131.873 79.9561 132.511C79.9561 133.15 79.4454 133.533 78.9348 133.533Z" fill="#231F20"/>
<path d="M68.9778 19.1489C70.2544 19.1489 71.148 18.1277 71.148 16.9787V2.17021C71.148 1.02128 70.1268 0 68.9778 0C67.8289 0 66.8076 1.02128 66.8076 2.17021V16.9787C66.8076 18.1277 67.8289 19.1489 68.9778 19.1489Z" fill="#231F20"/>
<path d="M105.105 10.979C104.084 10.2131 102.808 10.5961 102.169 11.4897L93.9991 23.745C93.2331 24.7663 93.4884 26.1705 94.5097 26.8088C94.8927 27.0641 95.2757 27.1918 95.6587 27.1918C96.4246 27.1918 97.0629 26.8088 97.4459 26.1705L105.616 13.9152C106.382 13.0216 106.127 11.6173 105.105 10.979Z" fill="#231F20"/>
<path d="M43.0625 26.6813C43.4455 26.6813 43.8285 26.5537 44.2115 26.2983C45.2328 25.66 45.4881 24.2558 44.8498 23.2345L36.9349 10.8515C36.2966 9.83025 34.8923 9.57493 33.8711 10.2132C32.8498 10.8515 32.5945 12.2558 33.2328 13.2771L41.1477 25.66C41.6583 26.426 42.2966 26.6813 43.0625 26.6813Z" fill="#231F20"/>
<path d="M27.6158 40.2133L14.7222 33.192C13.7009 32.6814 12.2966 33.0643 11.786 34.0856C11.1477 35.1069 11.5307 36.5111 12.6796 37.0218L25.5732 44.0431C25.9562 44.1707 26.2115 44.2984 26.5945 44.2984C27.3605 44.2984 28.1264 43.9154 28.5094 43.1494C29.02 42.1282 28.6371 40.7239 27.6158 40.2133Z" fill="#231F20"/>
<path d="M126.297 34.0856C125.786 33.0643 124.382 32.6814 123.361 33.192L110.34 40.2133C109.318 40.7239 108.935 42.1282 109.446 43.1494C109.829 43.9154 110.595 44.2984 111.361 44.2984C111.744 44.2984 112.127 44.1707 112.382 44.0431L125.403 37.0218C126.425 36.5111 126.808 35.1069 126.297 34.0856Z" fill="#231F20"/>
</svg>
