<?xml version="1.0" encoding="UTF-8"?>
<svg xmlns="http://www.w3.org/2000/svg" xmlns:xlink="http://www.w3.org/1999/xlink" width="28px" height="27px" viewBox="0 0 28 27" version="1.1">
<g id="surface1">
<path style=" stroke:none;fill-rule:nonzero;fill:rgb(100%,100%,100%);fill-opacity:1;" d="M 26.289062 22.441406 L 21.46875 17.71875 C 21.449219 17.695312 21.421875 17.679688 21.402344 17.65625 C 20.96875 18.316406 20.445312 18.941406 19.867188 19.511719 C 19.273438 20.082031 18.636719 20.59375 17.964844 21.015625 C 18 21.046875 18.015625 21.074219 18.035156 21.097656 L 22.847656 25.832031 C 23.804688 26.765625 25.347656 26.765625 26.289062 25.832031 C 27.242188 24.898438 27.246094 23.382812 26.289062 22.441406 Z M 26.289062 22.441406 "/>
<path style=" stroke:none;fill-rule:nonzero;fill:rgb(100%,100%,100%);fill-opacity:1;" d="M 19.167969 3.230469 C 14.792969 -1.074219 7.667969 -1.074219 3.289062 3.230469 C -1.09375 7.523438 -1.097656 14.53125 3.285156 18.839844 C 7.667969 23.132812 14.792969 23.132812 19.167969 18.839844 C 23.546875 14.53125 23.546875 7.523438 19.167969 3.230469 Z M 5.351562 16.804688 C 2.105469 13.625 2.105469 8.4375 5.351562 5.257812 C 8.597656 2.074219 13.871094 2.074219 17.105469 5.253906 C 20.351562 8.4375 20.351562 13.617188 17.105469 16.804688 C 13.871094 19.980469 8.597656 20 5.351562 16.804688 Z M 5.351562 16.804688 "/>
<path style=" stroke:none;fill-rule:nonzero;fill:rgb(100%,100%,100%);fill-opacity:1;" d="M 7.125 7.371094 C 7.183594 7.21875 7.246094 7.078125 7.335938 6.933594 C 7.429688 6.777344 7.539062 6.652344 7.667969 6.535156 C 7.804688 6.410156 7.972656 6.308594 8.15625 6.238281 C 8.332031 6.148438 8.535156 6.109375 8.753906 6.109375 C 9.050781 6.109375 9.300781 6.195312 9.523438 6.347656 C 9.746094 6.496094 9.96875 6.75 10.199219 7.113281 L 11.378906 8.992188 L 13.113281 6.316406 C 13.199219 6.269531 13.308594 6.238281 13.445312 6.207031 C 13.589844 6.160156 13.746094 6.140625 13.882812 6.140625 C 14.34375 6.140625 14.699219 6.253906 14.96875 6.492188 C 15.226562 6.722656 15.351562 7 15.351562 7.34375 C 15.351562 7.628906 15.285156 7.894531 15.128906 8.125 C 14.992188 8.359375 14.792969 8.636719 14.542969 8.960938 L 12.992188 10.945312 L 15.449219 14.621094 C 15.375 15.003906 15.191406 15.3125 14.914062 15.542969 C 14.660156 15.761719 14.304688 15.878906 13.855469 15.878906 C 13.558594 15.878906 13.3125 15.800781 13.097656 15.652344 C 12.886719 15.496094 12.671875 15.230469 12.449219 14.867188 L 11.234375 12.851562 L 9.324219 15.84375 C 9.253906 15.851562 9.171875 15.855469 9.101562 15.855469 C 9.035156 15.867188 8.960938 15.878906 8.886719 15.878906 C 8.316406 15.878906 7.894531 15.75 7.628906 15.511719 C 7.351562 15.273438 7.21875 14.972656 7.21875 14.621094 C 7.21875 14.316406 7.285156 14.050781 7.402344 13.828125 C 7.53125 13.597656 7.703125 13.324219 7.945312 13.019531 L 9.523438 10.894531 Z M 7.125 7.371094 "/>
</g>
</svg>
