<svg width="130" height="130" viewBox="0 0 130 130" fill="none" xmlns="http://www.w3.org/2000/svg">
<path d="M82.6543 70.5758H21.949C20.0886 70.5758 18.5635 69.0507 18.5635 67.1903C18.5635 65.3298 20.0886 63.8047 21.949 63.8047H82.654C84.5145 63.8047 86.0396 65.3298 86.0396 67.1903C86.0399 69.056 84.5148 70.5758 82.6543 70.5758Z" fill="#231F20"/>
<path d="M82.6543 55.4567H21.949C20.0886 55.4567 18.5635 53.9316 18.5635 52.0711C18.5635 50.2107 20.0886 48.6855 21.949 48.6855H82.654C84.5145 48.6855 86.0396 50.2107 86.0396 52.0711C86.0399 53.9316 84.5148 55.4567 82.6543 55.4567Z" fill="#231F20"/>
<path d="M82.6543 38.8532H21.949C20.0886 38.8532 18.5635 37.328 18.5635 35.4676C18.5635 33.6072 20.0886 32.082 21.949 32.082H82.654C84.5145 32.082 86.0396 33.6072 86.0396 35.4676C86.0399 37.328 84.5148 38.8532 82.6543 38.8532Z" fill="#231F20"/>
<path d="M23.647 112.733C20.4762 112.733 17.9029 110.165 17.9029 107.005V93.3263C7.41059 90.3809 0 80.8007 0 69.7634V31.4315C0 17.9154 10.9954 6.91992 24.5062 6.91992H80.9768C94.493 6.91992 105.483 17.9154 105.483 31.4315V69.758C105.483 83.2742 94.4876 94.2696 80.9768 94.2696H46.0148L27.4882 111.224C26.4296 112.204 25.0619 112.733 23.647 112.733ZM24.5062 12.1662C13.8829 12.1662 5.24067 20.8085 5.24067 31.4318V69.7583C5.24067 79.0136 11.8704 86.9642 21.0051 88.6675L23.1433 89.0658V107C23.1433 107.466 23.6411 107.488 23.6464 107.488C23.7566 107.488 23.8507 107.446 23.9502 107.362L43.9809 89.0292H80.9816C91.6049 89.0292 100.247 80.387 100.247 69.7586V31.4315C100.247 20.8082 91.6049 12.1609 80.9816 12.1609H24.5062V12.1662Z" fill="#231F20"/>
<path d="M108.911 22.8164C108.943 23.3091 109.058 23.7754 109.058 24.2786V28.0731C117.978 29.7554 124.754 37.58 124.754 46.9823V85.3141C124.754 95.7435 116.411 104.218 106.055 104.527V104.548H100.814V117.352C100.814 117.818 100.316 117.839 100.311 117.839C100.201 117.839 100.107 117.797 100.007 117.714L85.626 104.549L81.9206 104.585H71.2082C65.0501 104.585 59.6101 101.656 56.1093 97.1379H49.9512C54.1125 104.664 62.0105 109.826 71.2135 109.826H83.6343L96.4744 121.576C97.533 122.551 98.901 123.08 100.316 123.08C103.487 123.08 106.06 120.512 106.06 117.352V109.763C119.304 109.454 130 98.6313 130 85.3091V46.982C129.995 34.6346 120.797 24.4986 108.911 22.8164Z" fill="#231F20"/>
</svg>
