<svg width="27" height="27" viewBox="0 0 27 27" fill="none" xmlns="http://www.w3.org/2000/svg">
<g clip-path="url(#clip0_797_431)">
<circle cx="13.5" cy="13.5" r="13.5" fill="white"/>
<g clip-path="url(#clip1_797_431)">
<path d="M13.5 25C19.8513 25 25 19.8513 25 13.5C25 7.14873 19.8513 2 13.5 2C7.14873 2 2 7.14873 2 13.5C2 19.8513 7.14873 25 13.5 25Z" fill="#6DA544"/>
<path d="M13.5 6.5L23 13.5L13.5 20.5L4 13.5L13.5 6.5Z" fill="#FFDA44"/>
<path d="M13.5 17.5C15.7091 17.5 17.5 15.7091 17.5 13.5C17.5 11.2909 15.7091 9.5 13.5 9.5C11.2909 9.5 9.5 11.2909 9.5 13.5C9.5 15.7091 11.2909 17.5 13.5 17.5Z" fill="#F0F0F0"/>
<path d="M11.4999 13.25C10.8044 13.25 10.1331 13.3558 9.50122 13.5521C9.52921 15.7371 11.3083 17.5 13.4999 17.5C14.8551 17.5 16.052 16.8254 16.7756 15.7944C15.5377 14.2447 13.633 13.25 11.4999 13.25Z" fill="#0052B4"/>
<path d="M17.4258 14.2663C17.474 14.0182 17.5 13.7622 17.5 13.5C17.5 11.2908 15.7091 9.5 13.5 9.5C11.8516 9.5 10.4366 10.4973 9.82422 11.9212C10.3655 11.8091 10.926 11.75 11.5 11.75C13.8233 11.75 15.925 12.7157 17.4258 14.2663Z" fill="#0052B4"/>
<path d="M13.5 2C10.45 2 7.52494 3.21161 5.36827 5.36827C3.21161 7.52494 2 10.45 2 13.5C2 16.55 3.21161 19.4751 5.36827 21.6317C7.52494 23.7884 10.45 25 13.5 25C16.55 25 19.4751 23.7884 21.6317 21.6317C23.7884 19.4751 25 16.55 25 13.5C25 10.45 23.7884 7.52494 21.6317 5.36827C19.4751 3.2116 16.55 2 13.5 2Z" fill="#FF2A2A"/>
<path d="M2.66541 9.66748C2.2276 10.8979 2.00258 12.1939 2 13.4999C2.00258 14.8059 2.2276 16.1019 2.66541 17.3323H24.3346C24.7724 16.1019 24.9974 14.8059 25 13.4999C25.0001 12.1944 24.778 10.8984 24.343 9.66748H2.66541Z" fill="#FFD42A"/>
<path d="M13.4996 3.32764C11.477 3.32842 9.50057 3.93208 7.82271 5.06153C6.14485 6.19098 4.84174 7.79493 4.07983 9.66853H22.9228C22.1607 7.79439 20.8571 6.19005 19.1785 5.06056C17.5 3.93107 15.5228 3.32773 13.4996 3.32764Z" fill="#D40000"/>
<path d="M4.07983 17.3313C4.84174 19.2049 6.14485 20.8089 7.82271 21.9383C9.50057 23.0678 11.477 23.6714 13.4996 23.6722C15.5222 23.6714 17.4986 23.0678 19.1765 21.9383C20.8544 20.8089 22.1575 19.2049 22.9194 17.3313H4.07983Z" fill="#D40000"/>
<path d="M4.08021 9.66748C3.58396 10.8842 3.32815 12.1856 3.3269 13.4997C3.32815 14.8137 3.58396 16.1151 4.08021 17.3318H22.9198C23.416 16.1151 23.6718 14.8137 23.6731 13.4997C23.6729 12.1858 23.4183 10.8845 22.9232 9.66748H4.08021Z" fill="#FFCC00"/>
<path d="M7.89502 12.2478H11.6833L11.6878 14.9902C11.6895 16.0346 10.7817 16.8813 9.66394 16.8813C8.61785 16.8144 7.82789 15.9677 7.89953 14.9902L7.89502 12.2478Z" fill="white"/>
<path d="M7.89502 12.2478H9.78918V14.1902H7.89502V12.2478Z" fill="#D40000"/>
<path d="M9.79004 12.2478H11.6842V14.1902H9.79004V12.2478Z" fill="white"/>
<path d="M7.896 14.1892L7.90044 14.9891V15.2362C7.94525 15.8349 8.30954 16.36 8.84538 16.6485C9.38238 16.3602 9.74818 15.8357 9.79306 15.2362L9.78861 14.1892H7.896Z" fill="#D40000"/>
<path d="M9.79077 14.1892C9.79431 14.5382 9.79374 14.8872 9.79522 15.2362C9.83857 15.8154 10.1806 16.3266 10.688 16.6205C11.2721 16.2932 11.6617 15.7367 11.6878 15.0368C11.6871 14.7589 11.6849 14.4709 11.6834 14.1892L9.79077 14.1892Z" fill="#D40000"/>
<path d="M8.25875 12.6497H9.42793C9.46761 12.6497 9.50567 12.6703 9.53373 12.7071C9.56179 12.7439 9.57755 12.7938 9.57755 12.8458V13.5886C9.57755 13.6143 9.57368 13.6399 9.56616 13.6637C9.55864 13.6874 9.54762 13.7091 9.53373 13.7273C9.51984 13.7455 9.50334 13.76 9.48519 13.7698C9.46704 13.7797 9.44758 13.7847 9.42793 13.7847H8.25875C8.2391 13.7847 8.21965 13.7797 8.20149 13.7698C8.18334 13.76 8.16685 13.7455 8.15295 13.7273C8.13906 13.7091 8.12804 13.6874 8.12052 13.6637C8.113 13.6399 8.10913 13.6143 8.10913 13.5886V12.8458C8.10913 12.7938 8.1249 12.7439 8.15295 12.7071C8.18101 12.6703 8.21907 12.6497 8.25875 12.6497Z" fill="#FFCC00"/>
<path d="M8.54053 13.785H9.14639L9.14711 13.3464C9.14739 13.1793 9.00219 13.0439 8.82344 13.0439C8.65615 13.0546 8.52979 13.1901 8.54126 13.3464L8.54053 13.785Z" fill="#0044AA"/>
<path d="M5.60371 16.4038H7.2035C7.21783 16.4038 7.23201 16.4066 7.24524 16.4121C7.25848 16.4176 7.2705 16.4256 7.28063 16.4358C7.29076 16.4459 7.29879 16.4579 7.30428 16.4711C7.30976 16.4844 7.31258 16.4986 7.31258 16.5129V16.7947C7.31258 16.809 7.30976 16.8232 7.30428 16.8364C7.29879 16.8496 7.29076 16.8617 7.28063 16.8718C7.2705 16.8819 7.25848 16.89 7.24524 16.8954C7.23201 16.9009 7.21783 16.9037 7.2035 16.9037H5.60371C5.58938 16.9037 5.5752 16.9009 5.56196 16.8954C5.54873 16.89 5.53671 16.8819 5.52658 16.8718C5.51645 16.8617 5.50841 16.8496 5.50293 16.8364C5.49745 16.8232 5.49463 16.809 5.49463 16.7947V16.5129C5.49463 16.4986 5.49745 16.4844 5.50293 16.4711C5.50841 16.4579 5.51645 16.4459 5.52658 16.4358C5.53671 16.4256 5.54873 16.4176 5.56196 16.4121C5.5752 16.4066 5.58938 16.4038 5.60371 16.4038Z" fill="#0044AA"/>
<path d="M5.87636 16.0771H6.93076C6.94389 16.0771 6.9569 16.0797 6.96903 16.0848C6.98116 16.0898 6.99218 16.0971 7.00147 16.1064C7.01075 16.1157 7.01812 16.1267 7.02314 16.1389C7.02817 16.151 7.03075 16.164 7.03075 16.1771V16.4044H5.77637V16.1771C5.77637 16.164 5.77895 16.151 5.78398 16.1389C5.789 16.1267 5.79637 16.1157 5.80565 16.1064C5.81494 16.0971 5.82596 16.0898 5.83809 16.0848C5.85022 16.0797 5.86322 16.0771 5.87636 16.0771Z" fill="#FFE680"/>
<path d="M6.86463 12.2495H5.94507V16.0785H6.86463V12.2495Z" fill="white"/>
<path d="M6.39128 11.5766C6.14359 11.5829 5.94507 11.7857 5.94507 12.0349V12.249H6.86463V12.0349C6.8375 11.666 6.58382 11.5613 6.39128 11.5766Z" fill="#D40000"/>
<path d="M10.6471 12.5486H10.8259C11.0349 12.5486 11.2032 12.7053 11.2032 12.8999V13.5372C11.2032 13.7318 11.0349 13.8885 10.8259 13.8885H10.6471C10.4381 13.8885 10.2698 13.7318 10.2698 13.5372V12.8999C10.2698 12.7053 10.438 12.5486 10.6471 12.5486Z" fill="#D40000"/>
<path d="M8.32121 11.8788H11.3418L11.7933 10.1057L10.8138 10.8665L9.80691 10.1057L8.81232 10.8665L7.79053 10.1057L8.32121 11.8788Z" fill="#D40000"/>
<path d="M10.2075 14.3569H11.3518L11.3531 15.2992C11.3537 15.6581 11.0795 15.949 10.7418 15.949C10.4259 15.926 10.1872 15.6351 10.2089 15.2992L10.2075 14.3569Z" fill="#FFCC00"/>
<path d="M12.3791 16.4038H13.9789C13.9932 16.4038 14.0074 16.4066 14.0206 16.4121C14.0339 16.4176 14.0459 16.4256 14.056 16.4358C14.0661 16.4459 14.0742 16.4579 14.0797 16.4711C14.0851 16.4844 14.088 16.4986 14.088 16.5129V16.7947C14.088 16.809 14.0851 16.8232 14.0797 16.8364C14.0742 16.8496 14.0661 16.8617 14.056 16.8718C14.0459 16.8819 14.0339 16.89 14.0206 16.8954C14.0074 16.9009 13.9932 16.9037 13.9789 16.9037H12.3791C12.3648 16.9037 12.3506 16.9009 12.3374 16.8954C12.3241 16.89 12.3121 16.8819 12.302 16.8718C12.2918 16.8617 12.2838 16.8496 12.2783 16.8364C12.2728 16.8232 12.27 16.809 12.27 16.7947V16.5129C12.27 16.4986 12.2728 16.4844 12.2783 16.4711C12.2838 16.4579 12.2918 16.4459 12.302 16.4358C12.3121 16.4256 12.3241 16.4176 12.3374 16.4121C12.3506 16.4066 12.3648 16.4038 12.3791 16.4038Z" fill="#0044AA"/>
<path d="M12.6517 16.0771H13.7062C13.7193 16.0771 13.7323 16.0797 13.7444 16.0848C13.7566 16.0898 13.7676 16.0971 13.7769 16.1064C13.7861 16.1157 13.7935 16.1267 13.7985 16.1389C13.8036 16.151 13.8061 16.164 13.8061 16.1771V16.4044H12.5518V16.1771C12.5518 16.164 12.5543 16.151 12.5594 16.1389C12.5644 16.1267 12.5718 16.1157 12.581 16.1064C12.5903 16.0971 12.6014 16.0898 12.6135 16.0848C12.6256 16.0797 12.6386 16.0771 12.6517 16.0771Z" fill="#FFE680"/>
<path d="M13.639 12.2495H12.7195V16.0785H13.639V12.2495Z" fill="white"/>
<path d="M7.89502 14.1914L7.90103 14.9904V15.2376C7.92174 15.5143 8.00866 15.7742 8.15127 16.0034V14.1914H7.89502Z" fill="#FFE680"/>
<path d="M9.53223 14.1914V16.0154C9.6691 15.7994 9.76015 15.552 9.7885 15.2919V14.1914H9.53223Z" fill="#FFE680"/>
<path d="M8.98682 14.1914V16.5642C9.07909 16.5039 9.16406 16.4362 9.24309 16.3622V14.1914H8.98682Z" fill="#FFE680"/>
<path d="M8.44043 14.1914V16.3561C8.51873 16.4306 8.60511 16.4974 8.6967 16.5581V14.1914L8.44043 14.1914Z" fill="#FFE680"/>
<path d="M9.2644 13.9121H10.3224L10.3236 14.678C10.3241 14.9697 10.0706 15.2061 9.75841 15.2061C9.46627 15.1874 9.24565 14.951 9.26567 14.678L9.2644 13.9121Z" fill="#D40000"/>
<path d="M9.37769 14.0505H10.2092L10.2102 14.6525C10.2105 14.8817 10.0113 15.0676 9.76595 15.0676C9.53634 15.0528 9.36295 14.867 9.37868 14.6525L9.37769 14.0505Z" fill="#0044AA"/>
<path d="M13.1657 11.5766C12.918 11.5829 12.7195 11.7857 12.7195 12.0349V12.249H13.639V12.0349C13.6119 11.666 13.3582 11.5613 13.1657 11.5766Z" fill="#D40000"/>
</g>
</g>
<defs>
<clipPath id="clip0_797_431">
<rect width="27" height="27" fill="white"/>
</clipPath>
<clipPath id="clip1_797_431">
<rect width="23" height="23" fill="white" transform="translate(2 2)"/>
</clipPath>
</defs>
</svg>
