<?xml version="1.0" encoding="UTF-8"?>
<svg xmlns="http://www.w3.org/2000/svg" xmlns:xlink="http://www.w3.org/1999/xlink" width="27px" height="27px" viewBox="0 0 27 27" version="1.1">
<g id="surface1">
<path style=" stroke:none;fill-rule:nonzero;fill:rgb(100%,100%,100%);fill-opacity:1;" d="M 13.640625 12.308594 L 9.910156 6.96875 L 7.921875 6.96875 L 12.539062 13.578125 L 13.121094 14.410156 L 17.078125 20.070312 L 19.070312 20.070312 L 14.21875 13.140625 Z M 13.640625 12.308594 "/>
<path style=" stroke:none;fill-rule:nonzero;fill:rgb(100%,100%,100%);fill-opacity:1;" d="M 13.5 0 C 6.039062 0 0 6.039062 0 13.5 C 0 20.960938 6.039062 27 13.5 27 C 20.960938 27 27 20.960938 27 13.5 C 27 6.039062 20.960938 0 13.5 0 Z M 16.46875 21 L 12.46875 15.179688 L 7.460938 21 L 6.171875 21 L 11.898438 14.339844 L 6.160156 6 L 10.53125 6 L 14.320312 11.511719 L 19.058594 6 L 20.351562 6 L 14.890625 12.351562 L 20.828125 21 L 16.460938 21 Z M 16.46875 21 "/>
</g>
</svg>
